<?xml version="1.0" standalone="no"?>
<!DOCTYPE svg PUBLIC "-//W3C//DTD SVG 20010904//EN"
 "http://www.w3.org/TR/2001/REC-SVG-20010904/DTD/svg10.dtd">
<svg version="1.0" xmlns="http://www.w3.org/2000/svg"
 width="500.000000pt" height="500.000000pt" viewBox="0 0 500.000000 500.000000"
 preserveAspectRatio="xMidYMid meet">

<g transform="translate(0.000000,500.000000) scale(0.100000,-0.100000)"
fill="#000000" stroke="none">
<path d="M2479 4062 c42 -60 37 -132 -9 -132 -9 0 -37 11 -61 25 -24 14 -80
43 -124 65 -72 37 -85 40 -130 35 -85 -11 -90 -13 -62 -36 14 -10 32 -34 41
-54 36 -76 -24 -97 -148 -50 -96 36 -165 42 -232 19 -57 -19 -66 -29 -34 -39
26 -8 70 -62 70 -86 0 -10 -11 -26 -25 -35 -23 -15 -36 -15 -133 -4 -127 15
-159 11 -231 -34 l-54 -34 32 -7 c44 -9 91 -51 91 -81 0 -33 -39 -50 -138 -58
-117 -10 -169 -28 -227 -79 l-49 -44 46 -7 c50 -8 98 -38 98 -62 0 -27 -48
-60 -112 -78 -121 -33 -177 -65 -214 -120 l-34 -51 55 -6 c128 -15 113 -84
-34 -159 -79 -39 -135 -95 -160 -159 -18 -47 -19 -52 -4 -47 48 19 99 18 122
-2 23 -18 24 -22 12 -50 -7 -17 -38 -53 -69 -79 -54 -46 -103 -97 -129 -132
-6 -9 -14 -42 -18 -74 l-7 -57 43 20 c72 32 109 23 109 -28 0 -29 -13 -54 -62
-116 -66 -83 -88 -136 -88 -211 l0 -65 42 30 c60 44 118 37 118 -13 0 -10 -17
-56 -37 -103 l-38 -84 -207 0 c-174 0 -209 -2 -222 -16 -19 -19 -20 -36 -4
-52 9 -9 520 -12 2239 -12 1986 0 2228 2 2239 15 10 12 10 21 2 40 l-12 25
-232 0 -232 0 40 43 c62 65 66 74 79 141 l12 64 -41 -19 c-123 -56 -159 23
-60 131 12 14 39 52 58 84 33 54 36 67 36 133 l0 74 -37 -30 c-49 -39 -85 -48
-107 -26 -23 24 -20 58 13 123 16 31 38 88 50 125 20 66 20 70 4 128 l-16 59
-39 -40 c-49 -50 -89 -55 -107 -11 -10 23 -9 43 8 113 29 119 28 186 -5 250
l-26 52 -15 -30 c-38 -72 -87 -95 -117 -52 -12 17 -16 49 -16 128 -1 134 -9
168 -56 225 l-38 47 -13 -44 c-17 -59 -53 -94 -82 -79 -29 16 -39 39 -56 128
-24 126 -43 168 -96 213 -26 22 -49 40 -51 40 -2 0 -5 -19 -7 -41 -7 -133 -88
-128 -140 8 -42 111 -80 162 -145 195 l-58 29 6 -48 c4 -31 2 -57 -7 -73 -27
-52 -76 -32 -130 53 -65 100 -115 146 -185 167 -50 15 -62 16 -58 5 23 -61 27
-97 11 -121 -27 -41 -59 -30 -145 51 -89 84 -127 105 -205 112 l-69 6 23 -31z
m332 -341 c312 -67 564 -205 789 -430 227 -228 365 -480 431 -789 40 -188 37
-459 -7 -654 l-16 -68 -1508 0 -1509 0 -10 38 c-45 167 -54 444 -21 637 83
485 397 908 837 1129 159 79 291 122 472 151 126 21 416 13 542 -14z"/>
<path d="M2260 3585 c-188 -35 -399 -119 -541 -216 -196 -131 -352 -302 -472
-520 -55 -98 -45 -97 14 1 219 364 562 608 986 702 143 32 445 32 583 1 147
-34 149 -34 88 -13 -122 41 -199 52 -393 56 -136 2 -211 -1 -265 -11z"/>
<path d="M2910 2833 c-221 -213 -407 -389 -411 -391 -7 -3 -56 29 -93 59 -5 4
5 30 23 58 34 56 39 86 16 95 -24 9 -40 -2 -63 -42 -39 -67 -37 -65 -61 -51
-26 17 -26 24 -1 56 11 14 20 36 20 49 0 27 -39 57 -63 48 -25 -9 -157 -188
-157 -212 0 -12 11 -29 25 -38 23 -15 27 -15 50 0 14 9 32 27 41 41 15 23 17
23 40 8 13 -8 24 -20 24 -25 0 -5 -21 -45 -47 -88 -45 -75 -51 -80 -98 -94
-28 -9 -79 -34 -113 -56 -35 -22 -89 -53 -120 -69 -54 -27 -263 -101 -324
-115 l-28 -6 0 118 0 118 40 53 c35 46 40 60 40 106 0 99 -74 165 -185 165
-112 0 -184 -56 -193 -150 -5 -51 4 -73 50 -131 l29 -36 -3 -148 -3 -149 -77
-16 c-43 -9 -86 -24 -97 -34 -23 -21 -35 -67 -26 -96 6 -20 10 -20 1350 -20
l1344 0 6 21 c19 57 -21 119 -76 119 -14 0 -28 2 -31 5 -3 3 1 29 9 58 18 67
20 226 4 297 -26 109 -76 195 -176 299 -104 109 -121 136 -130 207 -9 67 7
120 55 178 66 79 52 96 -56 71 -82 -19 -210 -79 -276 -129 -26 -20 -49 -36
-53 -36 -3 0 51 55 120 122 93 90 125 127 123 142 -8 57 -37 34 -448 -361z
m128 -50 c29 -77 98 -174 222 -313 118 -131 149 -182 150 -240 0 -41 -28 -92
-64 -115 -13 -9 -54 -20 -89 -25 -36 -6 -88 -19 -116 -29 l-50 -20 -133 33
c-197 50 -293 90 -445 185 l-62 38 282 271 c155 148 283 269 284 268 1 0 10
-24 21 -53z m-598 -391 c0 -3 -14 -21 -32 -39 -26 -27 -39 -33 -75 -33 -24 0
-43 4 -43 8 0 4 16 33 36 65 l35 56 40 -26 c21 -14 39 -28 39 -31z"/>
<path d="M2507 2323 c-4 -3 -7 -10 -7 -14 0 -10 124 -83 200 -117 139 -63 361
-120 424 -108 40 8 49 26 13 26 -37 0 -256 56 -348 90 -48 17 -125 53 -173 81
-88 50 -98 54 -109 42z"/>
<path d="M2340 2370 c-9 -17 -8 -20 13 -20 26 0 52 22 40 33 -13 14 -43 6 -53
-13z"/>
<path d="M2127 2369 c-32 -11 -99 -45 -149 -76 -94 -58 -193 -103 -310 -142
-42 -14 -68 -28 -68 -37 0 -8 4 -14 9 -14 27 0 257 88 321 122 155 85 223 118
237 118 15 0 42 27 43 43 0 11 -20 8 -83 -14z"/>
<path d="M1281 2048 c-32 -9 -85 -38 -79 -44 4 -3 109 24 116 30 13 14 -7 22
-37 14z"/>
<path d="M250 1265 c0 -31 3 -35 25 -35 l25 0 0 -125 c0 -118 -1 -125 -20
-125 -16 0 -20 -7 -20 -30 l0 -30 75 0 75 0 0 30 c0 23 -4 30 -20 30 -18 0
-20 7 -20 75 0 41 2 75 4 75 3 0 28 -40 56 -90 35 -62 57 -90 70 -90 13 0 31
24 60 78 23 42 46 81 51 86 5 6 9 -18 9 -62 0 -57 -3 -72 -15 -72 -10 0 -15
-10 -15 -32 l0 -33 75 3 75 4 0 29 c0 22 -5 29 -20 29 -19 0 -20 7 -20 125 0
118 1 125 20 125 16 0 20 7 20 35 l0 35 -52 0 -53 0 -65 -120 c-35 -66 -67
-120 -70 -120 -3 0 -35 53 -71 118 l-66 117 -57 3 -56 3 0 -36z"/>
<path d="M870 1266 c0 -29 4 -35 24 -38 24 -3 24 -3 -29 -122 -37 -83 -60
-122 -74 -128 -14 -5 -21 -16 -21 -32 0 -23 3 -25 75 -28 l75 -3 0 33 c0 23
-5 32 -16 32 -11 0 -14 5 -10 16 3 9 6 18 6 20 0 2 31 4 69 4 54 0 70 -4 75
-16 9 -22 8 -24 -9 -24 -10 0 -15 -10 -15 -30 l0 -30 75 0 75 0 0 30 c0 23 -5
30 -19 30 -14 0 -34 36 -87 158 l-70 157 -62 3 -62 3 0 -35z m124 -133 c22
-63 22 -63 -24 -63 -22 0 -40 3 -40 8 0 16 34 102 41 102 4 0 14 -21 23 -47z"/>
<path d="M1273 1281 c-62 -29 -98 -96 -97 -181 0 -69 16 -110 56 -147 50 -46
129 -56 190 -23 33 17 37 18 40 3 2 -10 14 -17 31 -17 l27 -2 0 73 c0 42 4 73
10 73 6 0 10 14 10 30 l0 30 -85 0 -85 0 0 -30 c0 -28 2 -30 40 -30 47 0 52
-15 17 -56 -31 -36 -96 -38 -132 -4 -53 50 -56 146 -6 202 21 24 36 31 67 31
62 1 91 -10 98 -38 5 -18 13 -25 31 -25 31 0 36 9 28 55 -5 32 -12 40 -47 56
-54 24 -139 24 -193 0z"/>
<path d="M1584 1286 c-10 -26 1 -51 24 -54 21 -3 22 -7 22 -127 0 -121 -1
-124 -22 -127 -16 -2 -24 -11 -26 -30 l-3 -26 80 -4 81 -3 0 33 c0 25 -4 32
-20 32 -19 0 -20 7 -20 125 0 118 1 125 20 125 16 0 20 7 20 35 l0 35 -75 0
c-57 0 -77 -4 -81 -14z"/>
<path d="M1870 1265 c0 -31 3 -35 26 -35 17 0 24 -4 21 -12 -46 -117 -104
-232 -119 -236 -12 -3 -18 -14 -18 -36 l0 -31 75 3 c73 3 75 4 75 29 0 16 -7
27 -20 30 -22 6 -24 11 -11 31 5 9 28 12 77 10 56 -2 69 -6 72 -20 2 -11 -3
-18 -12 -18 -11 0 -16 -9 -16 -29 l0 -29 75 -4 75 -3 0 33 c0 24 -4 32 -18 32
-13 0 -34 40 -86 160 l-69 160 -63 0 -64 0 0 -35z m131 -140 c9 -24 14 -46 11
-49 -9 -10 -82 -7 -82 3 0 20 41 103 47 97 4 -4 15 -27 24 -51z"/>
<path d="M2290 1266 c0 -27 4 -35 21 -38 19 -3 21 -9 21 -123 0 -114 -2 -120
-21 -123 -16 -3 -21 -11 -21 -32 l0 -28 75 -4 75 -3 0 33 c0 25 -4 32 -20 32
-18 0 -20 7 -20 75 0 41 3 75 8 75 4 0 30 -41 57 -90 64 -115 73 -115 135 -3
25 46 48 83 53 83 4 0 7 -31 7 -70 0 -63 -2 -70 -20 -70 -15 0 -20 -7 -20 -29
l0 -29 75 -4 75 -3 0 33 c0 25 -4 32 -20 32 -19 0 -20 7 -20 125 l0 125 25 0
c22 0 25 4 25 35 l0 36 -56 -3 -56 -3 -59 -110 c-33 -60 -64 -114 -68 -118 -5
-5 -39 46 -76 112 l-69 121 -53 0 -53 0 0 -34z"/>
<path d="M2900 1265 c0 -31 3 -35 26 -35 31 0 33 9 -34 -142 -34 -78 -52 -108
-64 -108 -13 0 -18 -8 -18 -30 l0 -30 75 0 75 0 0 30 c0 24 -4 30 -20 30 -18
0 -19 3 -10 20 9 17 21 20 76 20 51 0 66 -3 71 -17 4 -9 1 -19 -5 -21 -7 -2
-12 -18 -12 -35 l0 -32 70 0 70 0 0 31 c0 22 -6 33 -17 36 -12 3 -42 59 -87
161 l-68 157 -64 0 -64 0 0 -35z m134 -140 c17 -52 11 -59 -41 -53 -31 3 -32
13 -7 73 18 43 27 39 48 -20z"/>
<path d="M3230 1266 c0 -29 4 -36 20 -36 19 0 20 -7 20 -125 0 -118 -1 -125
-20 -125 -16 0 -20 -7 -20 -31 l0 -31 133 4 c119 3 135 5 165 26 46 33 72 90
72 156 0 63 -12 101 -43 134 -42 45 -75 55 -204 60 l-123 5 0 -37z m234 -46
c33 -12 56 -59 56 -114 0 -87 -39 -126 -125 -126 l-45 0 0 125 0 125 44 0 c25
0 56 -4 70 -10z"/>
<path d="M3640 1265 c0 -28 4 -35 20 -35 19 0 20 -7 20 -125 0 -118 -1 -125
-20 -125 -15 0 -20 -7 -20 -29 l0 -30 145 -3 c160 -3 155 -6 155 68 0 48 -53
63 -64 19 -6 -23 -11 -25 -61 -25 l-55 0 0 50 0 50 80 0 80 0 0 30 0 30 -80 0
-80 0 0 45 0 45 54 0 c49 0 55 -2 58 -22 2 -18 9 -23 32 -21 16 1 30 4 33 6 2
3 1 28 -3 56 l-7 51 -143 0 -144 0 0 -35z"/>
<path d="M3990 1265 c0 -28 4 -35 20 -35 19 0 20 -7 20 -125 0 -118 -1 -125
-20 -125 -16 0 -20 -7 -20 -30 l0 -30 80 0 80 0 0 30 c0 23 -4 30 -20 30 -17
0 -20 7 -20 40 0 37 2 40 28 40 25 0 32 -8 62 -69 l33 -69 49 -4 48 -3 0 32
c0 25 -5 32 -22 35 -15 2 -31 19 -47 47 l-24 43 26 22 c55 46 63 108 19 157
-33 37 -79 48 -204 49 l-88 0 0 -35z m224 -51 c39 -38 1 -94 -64 -94 l-40 0 0
55 0 55 44 0 c27 0 51 -6 60 -16z"/>
<path d="M4448 1293 c-2 -4 -4 -19 -4 -33 1 -18 8 -26 27 -30 l25 -5 -54 -122
c-42 -94 -59 -123 -73 -123 -14 0 -19 -7 -19 -30 l0 -30 75 0 75 0 0 30 c0 21
-5 30 -16 30 -9 0 -14 7 -12 18 3 14 16 18 74 20 65 3 72 1 77 -18 3 -13 0
-20 -9 -20 -9 0 -14 -11 -14 -30 l0 -30 75 0 75 0 0 29 c0 22 -5 30 -21 33
-16 2 -35 37 -88 158 l-67 155 -61 3 c-34 2 -63 -1 -65 -5z m125 -160 c9 -27
17 -51 17 -55 0 -5 -18 -8 -40 -8 -25 0 -40 5 -40 12 0 19 32 98 39 98 4 0 15
-21 24 -47z"/>
</g>
</svg>
